PathFileType	4	(X/Y/Z)	 s03c0402.trc
DataRate	CameraRate	NumFrames	NumMarkers	Units	OrigDataRate	OrigDataStartFrame	OrigNumFrames
200	200	4	50	mm	200	1001	2000
Frame#	Time	racr			lacr			c7			jug			rlel			rdr			llel			ldr			s2			lic			ric			lasi			rasi			rpsi			lpsi			rgt			lgt			rth1			rth2			rth3			rth4			rlfc			rmfc			rsh1			rsh2			rsh3			rsh4			rlmal			rcal			rtoe			rmt5			rmt1			lth1			lth2			lth4			lth3			llfc			lmfc			lsh1			lsh2			lsh3			lsh4			llmal			lcal			ltoe			lmt1			lmt5			SBIKE			LBIKE			RBIKE			
		X1	Y1	Z1	X2	Y2	Z2	X3	Y3	Z3	X4	Y4	Z4	X5	Y5	Z5	X6	Y6	Z6	X7	Y7	Z7	X8	Y8	Z8	X9	Y9	Z9	X10	Y10	Z10	X11	Y11	Z11	X12	Y12	Z12	X13	Y13	Z13	X14	Y14	Z14	X15	Y15	Z15	X16	Y16	Z16	X17	Y17	Z17	X18	Y18	Z18	X19	Y19	Z19	X20	Y20	Z20	X21	Y21	Z21	X22	Y22	Z22	X23	Y23	Z23	X24	Y24	Z24	X25	Y25	Z25	X26	Y26	Z26	X27	Y27	Z27	X28	Y28	Z28	X29	Y29	Z29	X30	Y30	Z30	X31	Y31	Z31	X32	Y32	Z32	X33	Y33	Z33	X34	Y34	Z34	X35	Y35	Z35	X36	Y36	Z36	X37	Y37	Z37	X38	Y38	Z38	X39	Y39	Z39	X40	Y40	Z40	X41	Y41	Z41	X42	Y42	Z42	X43	Y43	Z43	X44	Y44	Z44	X45	Y45	Z45	X46	Y46	Z46	X47	Y47	Z47	X48	Y48	Z48	X49	Y49	Z49	X50	Y50	Z50	
1001	5.0050	787.837406	1421.955240	-71.966447	760.575618	1386.492525	-407.583074	733.919093	1507.343870	-243.181689	726.923945	1337.127607	-225.265449	627.148591	1211.628721	80.956023	743.424864	977.841067	-2.517289	609.497277	1201.092156	-576.078823	731.062889	983.937870	-450.286747	178.885213	1289.825127	-209.597594	347.197413	1285.048272	-401.624455	355.236543	1310.585436	-34.633096	358.427915	1213.644556	-354.374999	373.385459	1233.624968	-77.582508	215.690840	1338.886820	-170.366015	214.642608	1333.502962	-252.582016	297.241840	1209.243303	-12.040829	274.752505	1177.133497	-406.606372	381.103511	1069.464668	5.759598	450.588783	1014.304862	2.612767	484.871983	935.938879	4.539433	476.773556	1034.420621	-12.680228	528.194660	815.092078	-11.387198	523.547271	789.969677	-132.127988	386.040543	713.583422	3.089663	325.452063	651.344445	-18.799959	241.088134	627.242331	-25.718154	344.490993	629.631156	-42.657878	125.160464	571.209619	-56.067187	60.192328	595.757070	-98.257827	211.189247	324.721327	-114.250165	136.333294	414.549283	-40.279353	163.952221	407.192489	-154.432865	341.320675	1033.062261	-430.868722	396.194445	966.167195	-434.884150	429.274296	981.503013	-430.163704	411.210560	878.416928	-426.953629	481.927728	764.730514	-410.410350	486.011369	748.389195	-290.974341	403.026726	610.379066	-439.781086	392.439208	527.022123	-423.701248	339.385716	454.268072	-422.416689	423.353410	516.543909	-402.224902	284.674668	338.967402	-411.377948	210.839422	302.993314	-368.240081	515.576528	244.473820	-353.754300	419.717452	259.062639	-314.345441	397.198294	240.063113	-432.179967	-215.832404	946.083153	-233.990277	-7.938248	83.858754	-437.017693	-13.721093	81.171722	-36.677932	
1002	5.0100	786.160804	1425.031450	-70.044811	761.305361	1388.017399	-406.264830	732.815394	1509.449033	-242.085908	727.162006	1338.906587	-223.767818	626.612406	1211.710015	81.039661	743.403356	977.839067	-2.409419	609.946189	1201.419359	-574.426982	730.972308	983.420485	-450.030550	179.264001	1287.466403	-210.427087	348.253973	1283.202287	-402.783509	355.220247	1309.906452	-35.862585	360.320441	1212.518138	-356.106248	374.121261	1233.371397	-78.936621	215.727063	1337.533832	-171.099017	214.762119	1331.761977	-256.047957	299.891771	1209.286983	-13.280803	274.667112	1173.760876	-407.462531	385.228521	1072.031215	5.247141	455.810523	1018.307637	2.233175	491.611270	940.567361	4.744286	481.377752	1038.983610	-13.596249	536.413376	820.348396	-11.040480	531.553726	793.158917	-129.595512	393.540109	719.834518	3.238566	332.178645	658.492516	-18.692309	247.594720	635.428557	-25.569305	350.827145	636.480248	-42.707694	130.925442	580.599186	-55.559299	65.571290	605.116669	-97.928854	217.286231	334.519580	-114.607590	142.596051	424.073257	-40.201237	169.446147	416.828730	-154.641971	338.376076	1027.856450	-430.835831	391.770741	959.795310	-434.851411	425.204606	974.441962	-430.744123	405.060437	871.758998	-425.929303	473.523713	757.836428	-409.905676	478.294135	741.760645	-290.264261	395.735818	603.323991	-439.461347	386.055916	519.877654	-423.658117	333.699141	446.597714	-422.481462	417.247275	509.554853	-402.553186	279.950002	330.836097	-411.634487	206.325731	295.914792	-368.665870	510.246274	233.223606	-353.686943	414.603753	249.273459	-314.382950	391.905867	230.240956	-432.274748	-215.830361	946.080794	-234.022741	-7.945805	83.844021	-437.015182	-13.719283	81.151779	-36.693590	
1003	5.0150	784.410132	1427.748467	-67.940428	761.968376	1389.526133	-404.879336	731.616816	1511.536653	-240.840397	727.382155	1340.645931	-222.143893	626.080828	1211.796085	81.411402	743.358460	977.876461	-2.183143	610.261555	1201.822569	-572.714826	730.873826	982.916026	-449.979774	179.719472	1285.115369	-211.553434	349.477902	1281.666717	-403.860513	355.438907	1308.549236	-38.306401	362.185844	1211.461771	-357.673627	374.760765	1232.682415	-79.929510	215.889589	1335.762084	-173.382608	214.997866	1329.479196	-257.289467	302.399134	1209.287962	-14.619443	274.776519	1170.525393	-408.461910	389.153635	1074.790979	4.443219	460.860858	1022.406349	1.651630	498.205253	945.459116	4.518092	485.943837	1043.377160	-14.774320	544.538985	825.768480	-10.811284	540.598717	799.430999	-132.474469	401.049741	726.191046	3.310053	339.973615	666.191090	-17.869247	254.100139	643.604964	-25.561015	357.363872	643.430867	-42.628735	137.014886	589.621285	-55.200873	71.567653	613.974212	-97.711342	224.327354	344.118707	-114.782223	149.312886	433.353438	-40.188027	175.092149	426.960752	-154.301320	335.678648	1022.841247	-430.767641	387.446379	953.602156	-434.670404	421.352363	967.561829	-431.319946	399.040100	865.415969	-424.807921	465.648343	751.177411	-408.891706	471.151570	735.147967	-289.466310	388.818222	596.625806	-439.158006	379.726321	513.093615	-423.600273	327.968893	439.388035	-422.558906	411.105316	502.913649	-402.750120	274.802683	323.488008	-411.994347	201.428098	289.484156	-369.226304	504.340735	222.318859	-353.512877	408.885856	239.954612	-314.360077	386.029860	220.844916	-432.365291	-215.855849	946.058205	-234.015583	-7.939938	83.821318	-437.014702	-13.720766	81.131183	-36.674494	
1004	5.0200	782.640230	1430.720430	-65.804557	762.610816	1391.000838	-403.441319	730.384764	1513.501784	-239.395534	727.437896	1342.291348	-220.613494	625.791247	1211.942343	82.027114	743.352961	977.947806	-1.771447	610.509572	1202.364921	-571.007684	730.772337	982.476851	-450.093188	180.683786	1282.522579	-213.168273	350.912736	1280.413164	-404.919167	355.023806	1307.722414	-39.645096	364.018794	1210.543175	-359.359196	375.165403	1232.351765	-80.873343	215.944631	1333.600759	-174.576006	215.318150	1327.325101	-258.481058	304.723448	1209.294967	-15.943513	274.994352	1167.218421	-409.159835	392.983723	1077.563791	3.539445	465.686186	1026.553093	1.025878	504.555138	950.343644	3.795607	490.246860	1047.985151	-15.909749	552.445405	831.324265	-10.765568	549.044395	804.840635	-133.165011	408.539075	732.719697	3.154537	346.866541	673.302191	-17.985449	260.588347	651.592769	-25.668898	363.989528	650.414927	-42.742298	143.405698	598.160574	-55.027079	77.157674	622.208162	-97.502148	231.786021	353.272734	-115.123451	156.325189	442.115790	-40.396538	182.330871	436.093804	-154.147519	333.179965	1018.112026	-430.805228	383.397279	947.672086	-434.516356	417.603486	960.933777	-431.731947	393.167707	859.391645	-423.798815	457.901721	744.966243	-407.955421	463.666181	729.086542	-289.030253	382.275529	590.297610	-438.942334	373.555797	506.675639	-423.696146	322.158169	432.748517	-422.754587	404.965375	496.638895	-402.733632	269.318023	316.759639	-412.351904	196.172357	283.821760	-369.852433	497.946402	211.501276	-353.360134	402.787958	231.141753	-314.547022	379.716948	211.921609	-432.484734	-215.916441	946.019914	-233.984981	-7.942610	83.822993	-437.025754	-13.735476	81.120907	-36.677042	
